<svg version="1.2" xmlns="http://www.w3.org/2000/svg" viewBox="0 0 700 700" width="700" height="700">
	<title>carr-svg</title>
	<style>
		.s0 { fill: #000000 } 
	</style>
	<g id="Layer">
		<path id="Layer" fill-rule="evenodd" class="s0" d="m597.5 360.4c2.9 4.2 4.5 9.2 4.5 14.4v13.9c0 6.8-2.7 13.2-7.5 18-4.7 4.8-11.2 7.5-17.9 7.5h-14.4v42.9c0.1 8.6-3.3 16.8-9.4 22.9-6 6.1-14.2 9.5-22.8 9.6h-25.7c-8.6-0.1-16.8-3.5-22.8-9.6-6.1-6.1-9.4-14.3-9.4-22.9v-42.9h-244.2v42.9c0 8.6-3.4 16.8-9.4 22.9-6.1 6.1-14.3 9.5-22.8 9.6h-25.7c-8.6-0.1-16.8-3.5-22.8-9.6-6.1-6.1-9.4-14.3-9.4-22.9v-42.9h-14.3c-6.8 0-13.3-2.7-18-7.5-4.8-4.8-7.5-11.2-7.5-18v-13.9c0-5.2 1.6-10.2 4.5-14.4 2.9-4.3 7-7.5 11.8-9.4-0.1-0.6-0.1-1.1-0.1-1.7v-69.4c0-14 4.2-27.7 12-39.4 7.9-11.6 19-20.6 32-25.8v-4.8h-27.5c-10-0.1-19.3-5.6-24.3-14.3-5-8.8-5-19.5 0-28.2 5-8.8 14.3-14.2 24.3-14.4h19.9c8.9 0 17.3 4.2 22.7 11.4l28.2-61.7c6.3-13.6 14.8-32.3 35.9-32.3h217.5c21.1 0 29.7 18.7 35.9 32.3l28.7 62.8c5.3-7.8 14.1-12.5 23.5-12.5h19.9c10 0.2 19.3 5.6 24.3 14.4 4.9 8.7 4.9 19.4 0 28.2-5 8.7-14.3 14.2-24.3 14.3h-28.8v2.2c14.8 4.1 27.9 12.9 37.3 25.1 9.3 12.3 14.4 27.3 14.4 42.7v69.4c0 0.6 0 1.2 0 1.7 4.7 1.9 8.8 5.1 11.7 9.4zm-462.5-11.1h430v-69.4c0-13.2-5.2-25.8-14.5-35-9.3-9.3-21.9-14.6-35-14.6h-331c-13.1 0-25.7 5.3-35 14.6-9.3 9.2-14.5 21.8-14.5 35zm45.9-19.7c-5.3-5.3-8.3-12.6-8.3-20.1v-18.1c0-5.7 4.6-10.3 10.4-10.3h37.8c10.1 0.1 19.3 5.6 24.3 14.3 5 8.7 5 19.5 0 28.2-5 8.8-14.2 14.2-24.3 14.3h-19.8c-7.5 0-14.7-3-20.1-8.3zm12.5-20.1c0 4.2 3.4 7.7 7.6 7.7h19.8c4.3 0 7.7-3.5 7.7-7.7 0-4.3-3.4-7.7-7.7-7.7h-27.4zm102.1-14.3c0-5.7 4.6-10.3 10.4-10.3h88.2c5.8 0 10.4 4.6 10.4 10.3 0 5.8-4.6 10.4-10.4 10.4h-88.2c-5.7 0-10.4-4.6-10.4-10.3zm0 28.9c0-2.7 1.1-5.4 3-7.3 2-2 4.6-3.1 7.4-3.1h88.2c2.8 0 5.5 1 7.5 3 2 1.9 3.2 4.6 3.2 7.4 0 2.8-1.2 5.5-3.2 7.4-2 2-4.7 3.1-7.5 3h-88.2c-5.7 0-10.4-4.6-10.4-10.4zm184.5 13.8c-10-0.1-19.3-5.6-24.3-14.3-5-8.7-5-19.5 0-28.2 5-8.8 14.3-14.2 24.3-14.4h37.9c5.7 0 10.4 4.7 10.4 10.4v18.1c0 7.5-3 14.7-8.4 20.1-5.3 5.3-12.5 8.3-20.1 8.3h-19.8zm55.4-148.8h27.4c4.3 0 7.7-3.5 7.7-7.7 0-4.3-3.4-7.7-7.7-7.7h-19.8c-4.2 0-7.6 3.4-7.6 7.7zm-356.4 12.6v8q2.7-0.2 5.5-0.2h328.8v-7.8l-41.4-90.4c-6.4-14-9.9-20.2-17-20.2h-217.5c-7.1 0-10.6 6.2-17 20.2zm-48.3-12.7h27.5v-7.7c0-4.2-3.4-7.7-7.7-7.7h-19.8c-4.2 0-7.6 3.5-7.6 7.7 0 4.3 3.4 7.7 7.6 7.7zm341.6 120.4c0 4.2 3.5 7.7 7.7 7.7h19.8c4.3 0 7.7-3.5 7.7-7.7v-7.7h-27.5c-4.2 0-7.7 3.4-7.7 7.7zm-265.2 104.6h-48.6v43c0 6.4 5.1 11.6 11.5 11.6h25.7c6.3 0 11.5-5.2 11.4-11.6zm334.3 0h-48.5v42.9c-0.1 6.4 5 11.6 11.4 11.7h25.7c6.4-0.1 11.5-5.3 11.4-11.7zm39.8-39.4c0-2.5-2.1-4.6-4.7-4.7h-453c-2.6 0.1-4.7 2.2-4.7 4.7v14c0 2.6 2.1 4.7 4.7 4.7h453c2.6 0 4.7-2.1 4.7-4.7z"/>
		<g id="w">
		</g>
		<g id="c">
		</g>
		<g id="b">
		</g>
		<g id="a">
		</g>
		<g id="d">
		</g>
		<g id="b">
		</g>
		<g id="f">
		</g>
		<g id="k">
		</g>
		<g id="j">
		</g>
		<g id="i">
		</g>
		<g id="f">
		</g>
		<g id="a">
		</g>
		<g id="v">
		</g>
		<g id="b">
		</g>
		<g id="u">
		</g>
		<g id="h">
		</g>
		<g id="t">
		</g>
		<g id="a">
		</g>
		<g id="c">
		</g>
		<g id="h">
		</g>
		<g id="a">
		</g>
		<g id="g">
		</g>
		<g id="a">
		</g>
		<g id="s">
		</g>
		<g id="c">
		</g>
		<g id="e">
		</g>
		<g id="r">
		</g>
		<g id="d">
		</g>
		<g id="q">
		</g>
		<g id="b">
		</g>
		<g id="p">
		</g>
		<g id="e">
		</g>
		<g id="o">
		</g>
		<g id="g">
		</g>
		<g id="n">
		</g>
		<g id="c">
		</g>
		<g id="e">
		</g>
		<g id="m">
		</g>
		<g id="b">
		</g>
		<g id="l">
		</g>
		<g id="d">
		</g>
	</g>
</svg>