<svg version="1.2" xmlns="http://www.w3.org/2000/svg" viewBox="0 0 700 700" width="700" height="700">
	<title>location23-svg</title>
	<style>
		.s0 { fill: #000000 } 
	</style>
	<g id="Layer">
		<path id="Layer" fill-rule="evenodd" class="s0" d="m282.6 281.8c-17.9-17.9-28-42.1-28.1-67.4 0-25.3 10.1-49.6 28-67.5 17.9-17.9 42.2-28 67.5-28 25.3 0 49.6 10.1 67.5 28 17.9 17.9 28 42.2 28 67.5 0 25.3-10.1 49.6-28 67.5-17.9 17.9-42.2 27.9-67.5 27.9-25.3 0-49.6-10.1-67.4-28zm11.7-122.8c-14.8 14.7-23 34.8-23 55.6 0 20.9 8.2 41 23 55.7 14.8 14.8 34.8 23.1 55.7 23.1 20.9 0 40.9-8.3 55.7-23.1 14.8-14.7 23-34.8 23-55.7 0-20.8-8.2-40.9-23-55.6-14.8-14.8-34.8-23.1-55.7-23.1-20.9 0-40.9 8.3-55.7 23.1z"/>
		<path id="Layer" fill-rule="evenodd" class="s0" d="m165.2 179.5c8.1-43.1 31-81.9 64.8-109.9 33.7-27.9 76.2-43.2 120-43.2 43.8 0 86.3 15.3 120 43.2 33.8 28 56.7 66.8 64.8 109.9 8.2 43.1 1.1 87.6-20.1 126l-0.6 0.7-156.9 224c-1.7 2.1-4.2 3.3-6.9 3.3-2.7 0-5.3-1.2-7-3.3l-157.5-224-0.5-0.7c-21.2-38.4-28.3-82.9-20.1-126zm75.6-97.1c-30.7 25.4-51.6 60.8-59 99.9-7.5 39.1-1.1 79.7 18.1 114.6l150.1 213.7 150.1-213.7c19.2-34.9 25.6-75.5 18.1-114.6-7.4-39.1-28.3-74.5-59-99.9-30.7-25.4-69.3-39.3-109.2-39.3-39.9 0-78.5 13.9-109.2 39.3z"/>
		<g id="o">
		</g>
		<g id="e">
		</g>
		<g id="a">
		</g>
		<g id="i">
		</g>
		<g id="d">
		</g>
		<g id="a">
		</g>
		<g id="c">
		</g>
		<g id="h">
		</g>
		<g id="g">
		</g>
		<g id="b">
		</g>
		<g id="f">
		</g>
		<g id="e">
		</g>
		<g id="b">
		</g>
		<g id="n">
		</g>
		<g id="a">
		</g>
		<g id="m">
		</g>
		<g id="l">
		</g>
		<g id="d">
		</g>
		<g id="k">
		</g>
		<g id="c">
		</g>
		<g id="f">
		</g>
		<g id="j">
		</g>
	</g>
</svg>