<svg version="1.2" xmlns="http://www.w3.org/2000/svg" viewBox="0 0 700 700" width="700" height="700">
	<title>phoneqe-svg</title>
	<style>
		.s0 { fill: #000000 } 
	</style>
	<g id="Layer">
		<path id="Layer" fill-rule="evenodd" class="s0" d="m516.4 500c-4.7 15.9-16.2 28.6-34.3 37.8-17.8 9-34.1 13.3-49.8 13.3-29.2 0-51-15.1-70.1-31.5-2.2-1.9-219.6-196.6-174.6-457.3l0.2-1.2c3.8-22.5 12.8-36.2 51.5-48.5 0.3-0.1 11.3-3.7 25.4-3.7 27.6 0 48.5 13.6 58.9 38.5 17.5 41.9 23.1 58.8 23.7 60.5 0.6 1.5 1 2.9 1.4 4.2 3 10.8 10.1 47.8-28.4 71.6l-4.3 1.7c-12.6 2.9-31.1 11.7-32.2 20.4 1.1 12.1 12.1 114.2 78.7 173.9 2.7 0.3 10.3 0.2 24.4-7.8 10-5.6 20.8-8.5 32.1-8.5 22 0 43.3 11.6 54.4 29.5 12.1 19.4 36.4 58.5 36.4 58.5 1.5 2.6 13.6 24.4 6.6 48.6zm-42.8 21.1c2.4-1.2 4.4-2.5 6.5-3.9-15.3-17.2-30-37.7-42.7-60.1-2.5-4.5-0.9-10.2 3.6-12.7 4.5-2.6 10.2-1 12.7 3.5 11.9 21.2 25.7 40.4 39.9 56.5 2.1-3 3.8-6.2 4.8-9.7 5-16.9-4.5-33.4-4.6-33.6 0-0.1-24.2-39-36.2-58.4-6.8-10.9-19.1-18.5-32.5-20.2 1.2 3.6 2.9 8.5 5.1 14.4 1.8 4.8-0.6 10.2-5.4 12q-1.7 0.6-3.3 0.6c-3.8 0-7.4-2.3-8.8-6-3.4-9.2-5.7-16-6.8-19.5-3.4 1.1-6.6 2.4-9.8 4.2-16.5 9.3-31.4 12.3-41.1 8.9l-1.7-0.6-1.4-1.1c-75.2-65.7-85.8-176.3-86.7-188.7l-0.1-0.6v-0.7c1.3-25.5 38.3-36 45.6-37.9-4.1-5.2-8.2-10.8-12-17.3-2.6-4.4-1.1-10.2 3.4-12.8 4.4-2.6 10.1-1.1 12.7 3.3 3.2 5.4 6.5 10.1 9.9 14.4 9.9-13.3 8.4-27.9 6.7-35.5l-1.9-6c0-0.1-5-15.7-23.2-59-5.8-14-15.6-22.5-29.1-25.7 3.5 18.9 11.9 56.8 26.7 90.2 2 4.8-0.1 10.3-4.8 12.4-1.2 0.5-2.5 0.8-3.8 0.8-3.5 0-7-2.1-8.5-5.6-17-38.4-25.7-81.1-28.8-98.8-7.5 0.7-12.8 2.4-12.9 2.5-35.1 11.1-36.7 20.6-38.9 33.9l-0.2 1.2c-43.4 251.3 166.3 438.1 168.4 440 16.4 14 34.7 27 57.9 27 12.7 0 26.2-3.7 41.3-11.4z"/>
		<path id="Layer" class="s0" d="m442.3 426.1l-1.8-3.8c-2.1-4.7-7.6-6.8-12.4-4.6-4.7 2.2-6.7 7.7-4.5 12.4l1.9 4.1c1.6 3.3 4.9 5.3 8.4 5.3 1.4 0 2.7-0.3 4-0.9 4.7-2.2 6.7-7.8 4.4-12.5z"/>
		<g id="o">
		</g>
		<g id="a">
		</g>
		<g id="c">
		</g>
		<g id="i">
		</g>
		<g id="b">
		</g>
		<g id="c">
		</g>
		<g id="h">
		</g>
		<g id="g">
		</g>
		<g id="f">
		</g>
		<g id="e">
		</g>
		<g id="n">
		</g>
		<g id="a">
		</g>
		<g id="m">
		</g>
		<g id="d">
		</g>
		<g id="b">
		</g>
		<g id="a">
		</g>
		<g id="d">
		</g>
		<g id="l">
		</g>
		<g id="k">
		</g>
		<g id="j">
		</g>
	</g>
</svg>